<?xml version="1.0" encoding="UTF-8"?><svg xmlns="http://www.w3.org/2000/svg" xmlns:xlink="http://www.w3.org/1999/xlink" viewBox="0 0 50 50" version="1.1"><path d="M47.984 41.434c-.066-.086-.55-.356-.742-.356-.191 0-.816.41-.937.496-.117.086-.418.227-.516.239-.098.007-.957.05-1.148.05-.196 0-.485-.05-.614-.043-.129.012-.386.012-.441.012-.055 0-.074-.086 0-.172s.203-.32.332-.496c.129-.172.344-.309.473-.375s.336-.152.355-.238c.024-.086-.32-.086-.527-.02-.203.063-.492.356-.57.442-.075.086-.137.097-.204.086-.062-.012-.191.105-.246.148-.054.043-.195.14-.324.14s-.29-.14-.355-.195a.458.458 0 0 0-.278-.086c-.086.012-.258-.043-.379-.136-.117-.098-.148-.196-.117-.25.031-.051.098-.192.117-.258.024-.063-.062-.098-.14-.14a7.747 7.747 0 0 1-1.246-.934c-.442-.387-1.239-.957-1.606-1.258-.281-.235-1.816-1.422-2.762-2.024-.949-.601-1.797-1.207-2.14-1.257-.348-.055-.434-.086-.52-.196-.086-.105-1.43-1.355-2.191-1.773-.766-.418-2.305-1.153-2.38-1.215.142-.25.173-.527.106-.777-.062-.246-.578-.621-.785-.762-.203-.14-.344-.195-.344-.195s-.332-.743-.363-.852c.098-.394.356-1.668.301-3.355-.055-1.688-.184-1.938-.367-2.29-.184-.355-.45-.71-.645-1.496-.191-.785-.246-1.496-.148-1.808.094-.313.351-.86.523-1.492.172-.637.067-1.11.086-1.325.024-.214.184-.43.219-.992.031-.558.234-.59.387-1.398.148-.805.222-1.29.222-1.29s.27-.042.325-.28c.054-.239.066-.43.128-.805.067-.38.086-.809.098-.895.012-.086-.074-.226-.074-.226s.105-1.54.137-1.914c.035-.38.152-.657.152-.809 0-.148.012-.27-.16-.535a.709.709 0 0 1 .101-.18 2.478 2.478 0 0 0 2.566-2.473 2.477 2.477 0 1 0-4.676 1.145c.036.14.087.316.122.375.066.11.152.203.184.324.035.117.195.399.25.496.05.094.136.32.136.407 0 .086.078.25.121.355.043.11.032.332-.023.594-.055.258-.32 1.547-.406 1.816a.515.515 0 0 0-.25.356c-.02.117-.149.668-.235.87-.086.204-.12.571-.128.68-.012.106-.024.352-.098.407-.086.129-.16.344-.238.465-.075.117-.13.527-.11.699.024.172-.008.539-.094.644-.12.258-.14.559-.207.711a12.95 12.95 0 0 0-.308 1.094c-.035.164-.348.41-.485.55-.14.141-.398.528-.464.638-.02-.227-.063-.227-.106-.301-.043-.078-.18-.113-.21-.145-.032-.031.05-.129.062-.234.008-.11-.004-.227-.242-.3-.235-.075-.317-.09-.403-.177-.086-.086-.328-.156-.41-.27-.227-.257-.594-.59-1.313-.613 0 0-.519-.007-.925.266-.38.25-1.055.742-1.196 1.754-.14 1.012.774 1.656.848 1.719.078.066.293.195.14.387-.074.066-.093.183-.105.25-.012.062-.14.234-.258.343-.117.106-.375.375-.375.375s-.613.032-.992.559c-.16.195-.234.465-.344.625-.109.164-.484.84-.59 1.043-.109.207-.183.484-.495.765-.11.184-.356.368-.57 1.196 0 0-.852 1.043-1.153 1.535-.3.496-.774 1.355-.805 1.476-.031.118-.27.536-.336.7-.062.16-.086.308-.16.394-.074.086-.344.477-.582.68a1.786 1.786 0 0 0-.375.422c-.062.094-.16.234-.559.43-.398.19-.613.386-1.207.449-.59.066-.914.011-.957.226-.043.215.993.258 1.336.207.45-.054.72-.293.774-.238.054.055-.13.355-.516.473-.387.117-.324.238-.324.3 0 .067.226.141.582.043.355-.097.988-.402 1.043-.336.055.067-.14.329-.203.434-.067.11.031.227.129.238.093.008.343-.023.535-.386.195-.368.465-.54.539-.54.074 0 .41.368.637.454.222.086.718.086.773-.164.055-.246-.3-.258-.387-.258-.086 0-.289-.192-.3-.301-.012-.105.054-.45.02-.602-.032-.152.077-.687.218-1.03.137-.345.61-1.165.945-1.368.332-.203 1.473-1.031 1.828-1.773.356-.743.496-1.122.614-1.176.117-.055.312-.063.472-.29.16-.226.215-.398.344-.398.129 0 .117-.054.484.485.368.539.516.636.551.71.031.075-.07.223.043.442.149.29.363.355.363.504 0 .152.043.43.122.625.074.195.218.504.136.637-.105.172-.363.48-.418.59-.324.042-.785.183-.86.863-.073.637.02 1.246-.01 1.387-.032.14-.454.558-.614.625-.16.062-.54.117-.668.308-.129.195-.16.356-.41.496-.239.137-1.805 1.48-2.864 3.043-.035.055-.132.094-.25.133-.46.078-.64.223-.726.266-.074.039-.274.23-.469.453-.074.113-.183.14-.219.18-.41.152-1.882.906-2.765 1.519-.883.613-2.516 2.023-3.098 2.742-.379.453-.422.442-.515.484-.098.043-.055.258-.024.368 0 0-.172.234-.281.258-.106.019-.203-.196-.344-.208-.14-.007-.289.282-.332.356-.043.074-.11.215-.203.238-.098.02-.27-.11-.29-.379-.023-.265-.194-.523-.25-.547-.128 0-.202.204-.202.282 0 .074.074.277.14.363.063.086.02.203.02.293 0 .086.11.172.117.203.012.031.055.27-.031.246a.582.582 0 0 0-.399.074c-.129.086-.195.196-.195.27 0 .074.055.238-.203.293-.313.105-.559.148-.719.203-.164.055-.539.27-.687.29-.153.023-.25.01-.38.023-.128.011-.245.074-.374.074-.13 0-.504.203-.711.312-.203.11-.442.461-.29.785.15.325.583.743.723.895.137.148.344.277.793.332.454.055.711-.106.938-.246.226-.14.723-.215.914-.172.195.043.594.184.914-.055.41-.277.281-.46.398-.539.11 0 .153-.05.25-.215.094-.16.215-.3.387-.332.172-.03.332-.238.442-.46.105-.227.32-.454.43-.497a.383.383 0 0 0 .202-.226c.032-.086.239-.16.356-.258.117-.098.215-.152.27-.11.05.044.148-.042.269-.128.266-.13.394-.356.48-.301.086.055.387.129.508.023a77.758 77.758 0 0 1 2.246-1.797c.38-.257.657-.355 1.403-.785a37.751 37.751 0 0 0 1.718-1.097c.207-.141 1.141-.864 1.258-.946.262-.183.528-.21 1.465-.691.7-.356 2.164-1.098 3.43-1.902.648-.387 1.746-.95 1.883-.957.14-.012.527.277.937.43.5.183.828.226 1.54.46.706.238 2.624 1.043 3.085 1.227.465.183 1.098.422 1.902.465.454.086.668.148.82.183.15.031.266.02.419.086.148.063.59.356.86.484.269.13 1.226.762 1.476.946.246.183 1.398 1.066 1.656 1.238.258.172.516.375.71.398.192.02.43.149.688.352.258.207.86.625 1.032.754.171.129.41.355.742.379.336.02.496.098.71.289.216.195.54.625.688.71.153.087.324.227.387.356.066.13.465.621.613.73.153.11.215.204.27.38.054.172.277.62.398.804.117.184.172.368.516.13.441-.29.797-.712 1.355-1.075.563-.367.883-.57 1.313-.863.433-.29 1.476-1.32 1.777-1.645.297-.328.426-.468.363-.554z" id="surface1"/><metadata><rdf:RDF xmlns:rdf="http://www.w3.org/1999/02/22-rdf-syntax-ns#" xmlns:rdfs="http://www.w3.org/2000/01/rdf-schema#" xmlns:dc="http://purl.org/dc/elements/1.1/"><rdf:Description about="https://iconscout.com/legal#licenses" dc:title="air,jordan" dc:description="air,jordan" dc:publisher="Iconscout" dc:date="2017-12-09" dc:format="image/svg+xml" dc:language="en"><dc:creator><rdf:Bag><rdf:li>Icons8</rdf:li></rdf:Bag></dc:creator></rdf:Description></rdf:RDF></metadata></svg>